<mxfile host="app.diagrams.net" modified="2023-04-05T14:00:10.046Z" agent="Mozilla/5.0 (Macintosh; Intel Mac OS X 10_15_7) AppleWebKit/605.1.15 (KHTML, like Gecko) Version/15.4 Safari/605.1.15" etag="NG_qMH0LmfdoXlFyCddu" version="21.1.4" type="github">
  <diagram name="第 1 页" id="Dy8xI8kAT1v8dNtmXWIh">
    <mxGraphModel dx="1779" dy="329" grid="0" gridSize="10" guides="1" tooltips="1" connect="1" arrows="1" fold="1" page="0" pageScale="1" pageWidth="827" pageHeight="1169" math="0" shadow="0">
      <root>
        <mxCell id="0" />
        <mxCell id="1" parent="0" />
        <mxCell id="XIzF9oZjehzpdD9fLyam-105" style="orthogonalLoop=1;jettySize=auto;html=1;entryX=0;entryY=0.5;entryDx=0;entryDy=0;curved=1;" parent="1" source="XIzF9oZjehzpdD9fLyam-2" target="XIzF9oZjehzpdD9fLyam-7" edge="1">
          <mxGeometry relative="1" as="geometry">
            <Array as="points">
              <mxPoint x="42" y="730" />
            </Array>
          </mxGeometry>
        </mxCell>
        <mxCell id="XIzF9oZjehzpdD9fLyam-109" style="edgeStyle=orthogonalEdgeStyle;orthogonalLoop=1;jettySize=auto;html=1;entryX=0;entryY=0.75;entryDx=0;entryDy=0;curved=1;" parent="1" source="XIzF9oZjehzpdD9fLyam-2" target="XIzF9oZjehzpdD9fLyam-4" edge="1">
          <mxGeometry relative="1" as="geometry">
            <Array as="points">
              <mxPoint x="-24" y="564" />
            </Array>
          </mxGeometry>
        </mxCell>
        <mxCell id="XIzF9oZjehzpdD9fLyam-2" value="收集及整理數據" style="rounded=1;absoluteArcSize=1;arcSize=14;whiteSpace=wrap;strokeWidth=2;fillColor=#dae8fc;strokeColor=#6c8ebf;" parent="1" vertex="1">
          <mxGeometry x="-159" y="601" width="183" height="34" as="geometry" />
        </mxCell>
        <mxCell id="XIzF9oZjehzpdD9fLyam-3" value="與歷史數據比較" style="rounded=1;absoluteArcSize=1;arcSize=14;whiteSpace=wrap;strokeWidth=2;fillColor=#d5e8d4;strokeColor=#82b366;" parent="1" vertex="1">
          <mxGeometry x="117" y="430" width="127" height="34" as="geometry" />
        </mxCell>
        <mxCell id="XIzF9oZjehzpdD9fLyam-4" value="與同行業比較" style="rounded=1;absoluteArcSize=1;arcSize=14;whiteSpace=wrap;strokeWidth=2;fillColor=#ffe6cc;strokeColor=#d79b00;" parent="1" vertex="1">
          <mxGeometry x="117" y="538" width="111" height="34" as="geometry" />
        </mxCell>
        <mxCell id="XIzF9oZjehzpdD9fLyam-5" value="與預期比較" style="rounded=1;absoluteArcSize=1;arcSize=14;whiteSpace=wrap;strokeWidth=2;fillColor=#f8cecc;strokeColor=#b85450;" parent="1" vertex="1">
          <mxGeometry x="117" y="645" width="95" height="34" as="geometry" />
        </mxCell>
        <mxCell id="XIzF9oZjehzpdD9fLyam-7" value="討論與其他人" style="rounded=1;absoluteArcSize=1;arcSize=14;whiteSpace=wrap;strokeWidth=2;fillColor=#e1d5e7;strokeColor=#9673a6;" parent="1" vertex="1">
          <mxGeometry x="117" y="731" width="111" height="34" as="geometry" />
        </mxCell>
        <mxCell id="XIzF9oZjehzpdD9fLyam-8" value="瞭解趨勢和變化" style="rounded=1;absoluteArcSize=1;arcSize=14;whiteSpace=wrap;strokeWidth=2;fillColor=#d5e8d4;strokeColor=#82b366;" parent="1" vertex="1">
          <mxGeometry x="290" y="430" width="127" height="34" as="geometry" />
        </mxCell>
        <mxCell id="XIzF9oZjehzpdD9fLyam-9" value="瞭解公司或業務在行業中的位置" style="rounded=1;absoluteArcSize=1;arcSize=14;whiteSpace=wrap;strokeWidth=2;fillColor=#ffe6cc;strokeColor=#d79b00;" parent="1" vertex="1">
          <mxGeometry x="290" y="538" width="187" height="34" as="geometry" />
        </mxCell>
        <mxCell id="XIzF9oZjehzpdD9fLyam-107" value="" style="edgeStyle=orthogonalEdgeStyle;orthogonalLoop=1;jettySize=auto;html=1;curved=1;entryX=0.5;entryY=1;entryDx=0;entryDy=0;" parent="1" source="XIzF9oZjehzpdD9fLyam-10" target="XIzF9oZjehzpdD9fLyam-31" edge="1">
          <mxGeometry relative="1" as="geometry">
            <mxPoint x="592" y="624" as="targetPoint" />
          </mxGeometry>
        </mxCell>
        <mxCell id="XIzF9oZjehzpdD9fLyam-10" value="瞭解是否有任何差異或變化" style="rounded=1;absoluteArcSize=1;arcSize=14;whiteSpace=wrap;strokeWidth=2;fillColor=#f8cecc;strokeColor=#b85450;" parent="1" vertex="1">
          <mxGeometry x="294" y="645" width="174" height="34" as="geometry" />
        </mxCell>
        <mxCell id="XIzF9oZjehzpdD9fLyam-106" style="orthogonalLoop=1;jettySize=auto;html=1;curved=1;exitX=1;exitY=0.5;exitDx=0;exitDy=0;" parent="1" source="XIzF9oZjehzpdD9fLyam-12" edge="1">
          <mxGeometry relative="1" as="geometry">
            <mxPoint x="606" y="628" as="targetPoint" />
            <Array as="points">
              <mxPoint x="585" y="708" />
            </Array>
          </mxGeometry>
        </mxCell>
        <mxCell id="XIzF9oZjehzpdD9fLyam-12" value="從多個角度瞭解數字含義" style="rounded=1;absoluteArcSize=1;arcSize=14;whiteSpace=wrap;strokeWidth=2;fillColor=#e1d5e7;strokeColor=#9673a6;" parent="1" vertex="1">
          <mxGeometry x="290" y="731" width="198" height="34" as="geometry" />
        </mxCell>
        <mxCell id="XIzF9oZjehzpdD9fLyam-13" value="得出趨勢和變化的結論" style="rounded=1;absoluteArcSize=1;arcSize=14;whiteSpace=wrap;strokeWidth=2;fillColor=#dae8fc;strokeColor=#6c8ebf;" parent="1" vertex="1">
          <mxGeometry x="901" y="597" width="175" height="34" as="geometry" />
        </mxCell>
        <mxCell id="XIzF9oZjehzpdD9fLyam-15" value="" style="curved=1;startArrow=none;endArrow=block;exitX=0.6036736925830185;exitY=0.0055147058823529415;entryX=0;entryY=0.49402573529411764;rounded=0;" parent="1" source="XIzF9oZjehzpdD9fLyam-2" target="XIzF9oZjehzpdD9fLyam-3" edge="1">
          <mxGeometry relative="1" as="geometry">
            <Array as="points">
              <mxPoint x="92" y="447" />
            </Array>
          </mxGeometry>
        </mxCell>
        <mxCell id="XIzF9oZjehzpdD9fLyam-17" value="" style="curved=1;startArrow=none;endArrow=block;exitX=0.75;exitY=1;entryX=0;entryY=0.49954044117647056;rounded=0;exitDx=0;exitDy=0;" parent="1" source="XIzF9oZjehzpdD9fLyam-2" target="XIzF9oZjehzpdD9fLyam-5" edge="1">
          <mxGeometry relative="1" as="geometry">
            <Array as="points">
              <mxPoint x="18" y="659" />
            </Array>
          </mxGeometry>
        </mxCell>
        <mxCell id="XIzF9oZjehzpdD9fLyam-20" value="" style="curved=1;startArrow=none;endArrow=block;exitX=1;exitY=0.49402573529411764;entryX=0;entryY=0.49402573529411764;rounded=0;" parent="1" source="XIzF9oZjehzpdD9fLyam-3" target="XIzF9oZjehzpdD9fLyam-8" edge="1">
          <mxGeometry relative="1" as="geometry">
            <Array as="points" />
          </mxGeometry>
        </mxCell>
        <mxCell id="XIzF9oZjehzpdD9fLyam-21" value="" style="curved=1;startArrow=none;endArrow=block;exitX=1;exitY=0.4820772058823529;entryX=0;entryY=0.4820772058823529;rounded=0;" parent="1" source="XIzF9oZjehzpdD9fLyam-4" target="XIzF9oZjehzpdD9fLyam-9" edge="1">
          <mxGeometry relative="1" as="geometry">
            <Array as="points" />
          </mxGeometry>
        </mxCell>
        <mxCell id="XIzF9oZjehzpdD9fLyam-22" value="" style="curved=1;startArrow=none;endArrow=block;exitX=1;exitY=0.49954044117647056;entryX=0;entryY=0.49954044117647056;rounded=0;" parent="1" source="XIzF9oZjehzpdD9fLyam-5" target="XIzF9oZjehzpdD9fLyam-10" edge="1">
          <mxGeometry relative="1" as="geometry">
            <Array as="points" />
          </mxGeometry>
        </mxCell>
        <mxCell id="XIzF9oZjehzpdD9fLyam-24" value="" style="curved=1;startArrow=none;endArrow=block;exitX=1;exitY=0.5050551470588235;entryX=0;entryY=0.5050551470588235;rounded=0;" parent="1" source="XIzF9oZjehzpdD9fLyam-7" target="XIzF9oZjehzpdD9fLyam-12" edge="1">
          <mxGeometry relative="1" as="geometry">
            <Array as="points" />
          </mxGeometry>
        </mxCell>
        <mxCell id="XIzF9oZjehzpdD9fLyam-25" value="" style="curved=1;startArrow=none;endArrow=block;exitX=1;exitY=0.49402573529411764;entryX=0.5;entryY=0;rounded=0;entryDx=0;entryDy=0;" parent="1" source="XIzF9oZjehzpdD9fLyam-8" target="XIzF9oZjehzpdD9fLyam-31" edge="1">
          <mxGeometry relative="1" as="geometry">
            <Array as="points">
              <mxPoint x="558" y="447" />
            </Array>
          </mxGeometry>
        </mxCell>
        <mxCell id="XIzF9oZjehzpdD9fLyam-26" value="" style="curved=1;startArrow=none;endArrow=block;exitX=1;exitY=0.4820772058823529;rounded=0;" parent="1" source="XIzF9oZjehzpdD9fLyam-9" edge="1">
          <mxGeometry relative="1" as="geometry">
            <Array as="points">
              <mxPoint x="558" y="550" />
            </Array>
            <mxPoint x="593" y="595" as="targetPoint" />
          </mxGeometry>
        </mxCell>
        <mxCell id="XIzF9oZjehzpdD9fLyam-102" value="" style="edgeStyle=orthogonalEdgeStyle;rounded=0;orthogonalLoop=1;jettySize=auto;html=1;" parent="1" source="XIzF9oZjehzpdD9fLyam-31" target="XIzF9oZjehzpdD9fLyam-96" edge="1">
          <mxGeometry relative="1" as="geometry" />
        </mxCell>
        <mxCell id="XIzF9oZjehzpdD9fLyam-108" style="edgeStyle=orthogonalEdgeStyle;rounded=0;orthogonalLoop=1;jettySize=auto;html=1;exitX=0;exitY=0.5;exitDx=0;exitDy=0;" parent="1" source="XIzF9oZjehzpdD9fLyam-31" edge="1">
          <mxGeometry relative="1" as="geometry">
            <mxPoint x="559.6666666666667" y="613.6666666666666" as="targetPoint" />
          </mxGeometry>
        </mxCell>
        <mxCell id="XIzF9oZjehzpdD9fLyam-31" value="轉換為文字描述" style="rounded=1;absoluteArcSize=1;arcSize=14;whiteSpace=wrap;strokeWidth=2;fillColor=#dae8fc;strokeColor=#6c8ebf;" parent="1" vertex="1">
          <mxGeometry x="551" y="597" width="97" height="34" as="geometry" />
        </mxCell>
        <mxCell id="XIzF9oZjehzpdD9fLyam-32" value="開始" style="rounded=1;absoluteArcSize=1;arcSize=14;whiteSpace=wrap;strokeWidth=2;" parent="1" vertex="1">
          <mxGeometry x="20" y="945" width="47" height="34" as="geometry" />
        </mxCell>
        <mxCell id="XIzF9oZjehzpdD9fLyam-63" value="與歷史數據比較" style="whiteSpace=wrap;strokeWidth=2;" parent="1" vertex="1">
          <mxGeometry x="20" y="1457" width="127" height="34" as="geometry" />
        </mxCell>
        <mxCell id="XIzF9oZjehzpdD9fLyam-74" value="開始" style="rounded=1;absoluteArcSize=1;arcSize=14;whiteSpace=wrap;strokeWidth=2;" parent="1" vertex="1">
          <mxGeometry x="20" y="1635" width="47" height="34" as="geometry" />
        </mxCell>
        <mxCell id="XIzF9oZjehzpdD9fLyam-82" value="更好地理解和解釋數字含義" style="rounded=1;absoluteArcSize=1;arcSize=14;whiteSpace=wrap;strokeWidth=2;" parent="1" vertex="1">
          <mxGeometry x="873" y="1635" width="207" height="34" as="geometry" />
        </mxCell>
        <mxCell id="XIzF9oZjehzpdD9fLyam-83" value="結束" style="rounded=1;absoluteArcSize=1;arcSize=14;whiteSpace=wrap;strokeWidth=2;" parent="1" vertex="1">
          <mxGeometry x="1130" y="1635" width="47" height="34" as="geometry" />
        </mxCell>
        <mxCell id="XIzF9oZjehzpdD9fLyam-95" value="" style="curved=1;startArrow=none;endArrow=block;exitX=1;exitY=0.5055147058823529;entryX=0;entryY=0.5055147058823529;rounded=0;" parent="1" source="XIzF9oZjehzpdD9fLyam-82" target="XIzF9oZjehzpdD9fLyam-83" edge="1">
          <mxGeometry relative="1" as="geometry">
            <Array as="points" />
          </mxGeometry>
        </mxCell>
        <mxCell id="XIzF9oZjehzpdD9fLyam-103" value="" style="edgeStyle=orthogonalEdgeStyle;rounded=0;orthogonalLoop=1;jettySize=auto;html=1;" parent="1" source="XIzF9oZjehzpdD9fLyam-96" target="XIzF9oZjehzpdD9fLyam-13" edge="1">
          <mxGeometry relative="1" as="geometry" />
        </mxCell>
        <mxCell id="XIzF9oZjehzpdD9fLyam-96" value="更好地理解和解釋數字含義" style="rounded=1;absoluteArcSize=1;arcSize=14;whiteSpace=wrap;strokeWidth=2;fillColor=#dae8fc;strokeColor=#6c8ebf;" parent="1" vertex="1">
          <mxGeometry x="671" y="597" width="207" height="34" as="geometry" />
        </mxCell>
      </root>
    </mxGraphModel>
  </diagram>
</mxfile>
